<?xml version="1.0" encoding="UTF-8"?>
<svg version="1.1" xmlns="http://www.w3.org/2000/svg" width="92" height="92">
<path d="M0 0 C30.36 0 60.72 0 92 0 C92 30.36 92 60.72 92 92 C61.64 92 31.28 92 0 92 C0 61.64 0 31.28 0 0 Z " fill="#F7931A" transform="translate(0,0)"/>
<path d="M0 0 C2.475 0.495 2.475 0.495 5 1 C5 3.64 5 6.28 5 9 C5.66 9.33 6.32 9.66 7 10 C7.66 7.36 8.32 4.72 9 2 C11.475 2.495 11.475 2.495 14 3 C13.93039063 3.60328125 13.86078125 4.2065625 13.7890625 4.828125 C13.61933621 7.33360828 13.57199101 9.52182794 14 12 C16.75727815 14.53312969 16.75727815 14.53312969 20 16 C22.41486943 18.41486943 22.2961925 19.12707789 22.3125 22.4375 C22.32925781 23.21996094 22.34601563 24.00242187 22.36328125 24.80859375 C21.91868615 27.49050614 21.1442358 28.37747608 19 30 C18.34 30 17.68 30 17 30 C17.66 30.66 18.32 31.32 19 32 C21.48164373 35.72246559 21.83383158 38.69608146 21 43 C19.29617 46.40766001 18.00639908 48.38497834 14.75 50.375 C10.59722861 51.31881168 5.90825976 51.95412988 2 50 C1.67 52.64 1.34 55.28 1 58 C-0.65 57.67 -2.3 57.34 -4 57 C-4 54.36 -4 51.72 -4 49 C-5.485 48.505 -5.485 48.505 -7 48 C-7.33 50.64 -7.66 53.28 -8 56 C-9.65 55.67 -11.3 55.34 -13 55 C-12.67 52.03 -12.34 49.06 -12 46 C-13.27875 45.87625 -14.5575 45.7525 -15.875 45.625 C-19.75 45.25 -19.75 45.25 -22 43 C-20.8125 40.5 -20.8125 40.5 -19 38 C-16.38671875 37.84375 -16.38671875 37.84375 -14 38 C-10.71163097 25.64676595 -10.71163097 25.64676595 -9 13 C-10.32 12.67 -11.64 12.34 -13 12 C-12.67 10.02 -12.34 8.04 -12 6 C-8.7 6.66 -5.4 7.32 -2 8 C-1.34 5.36 -0.68 2.72 0 0 Z " fill="#FEFAF7" transform="translate(44,16)"/>
<path d="M0 0 C0.33 0 0.66 0 1 0 C1 13.86 1 27.72 1 42 C-12.86 42 -26.72 42 -41 42 C-41 41.67 -41 41.34 -41 41 C-40.07380859 40.85304688 -40.07380859 40.85304688 -39.12890625 40.703125 C-26.71727864 38.51172652 -16.81824707 33.13688468 -8.671875 23.40234375 C-3.77335898 16.36358826 -0.33752047 8.60677194 0 0 Z " fill="#FEFBF8" transform="translate(91,50)"/>
<path d="M0 0 C0.33 0 0.66 0 1 0 C1.14695313 0.92619141 1.14695313 0.92619141 1.296875 1.87109375 C3.67269553 15.32724968 9.88392922 25.8759554 21 34 C27.68228879 38.20283721 34.20977854 40.00770943 42 41 C42 41.33 42 41.66 42 42 C28.14 42 14.28 42 0 42 C0 28.14 0 14.28 0 0 Z " fill="#FEFBF9" transform="translate(0,50)"/>
<path d="M0 0 C13.86 0 27.72 0 42 0 C42 13.86 42 27.72 42 42 C41.67 42 41.34 42 41 42 C40.91363281 41.32195313 40.82726562 40.64390625 40.73828125 39.9453125 C38.78036022 26.97633098 32.91348425 17.48087072 22.734375 9.14453125 C15.74689061 4.19709912 8.44944686 1.89887733 0 1 C0 0.67 0 0.34 0 0 Z " fill="#FEFBF9" transform="translate(50,0)"/>
<path d="M0 0 C13.86 0 27.72 0 42 0 C42 0.33 42 0.66 42 1 C40.98292969 1.12955078 40.98292969 1.12955078 39.9453125 1.26171875 C27.00744665 3.21494226 17.39717549 9.06750239 9.14453125 19.30078125 C4.11141343 26.49627562 1.7765499 33.30264115 1 42 C0.67 42 0.34 42 0 42 C0 28.14 0 14.28 0 0 Z " fill="#FEFCFA" transform="translate(0,0)"/>
<path d="M0 0 C4.88080542 0.59401283 9.35920128 1.51749688 13 5 C12.625 7.9375 12.625 7.9375 12 11 C9.51245214 12.24377393 7.77344699 12.13306235 5 12.125 C4.113125 12.12757812 3.22625 12.13015625 2.3125 12.1328125 C0 12 0 12 -2 11 C-1.85957123 9.35369672 -1.71250671 7.70795821 -1.5625 6.0625 C-1.48128906 5.14597656 -1.40007813 4.22945312 -1.31640625 3.28515625 C-1 1 -1 1 0 0 Z " fill="#F7941D" transform="translate(42,47)"/>
<path d="M0 0 C7.36603774 0.60377358 7.36603774 0.60377358 10 2.25 C11.38535376 4.67436907 11.42182407 6.25814354 11 9 C7.53001271 11.31332486 6.07490752 11.33957563 2 11 C1.01 10.34 0.02 9.68 -1 9 C-0.67 6.03 -0.34 3.06 0 0 Z " fill="#F7941D" transform="translate(45,32)"/>
</svg>
