<?xml version="1.0" encoding="UTF-8"?>
<svg version="1.1" xmlns="http://www.w3.org/2000/svg" width="92" height="92">
<path d="M0 0 C30.36 0 60.72 0 92 0 C92 30.36 92 60.72 92 92 C61.64 92 31.28 92 0 92 C0 61.64 0 31.28 0 0 Z " fill="#FCFCFB" transform="translate(0,0)"/>
<path d="M0 0 C3.59794133 1.53245649 4.77236634 1.7032902 8.375 0.4375 C8.99375 0.086875 9.6125 -0.26375 10.25 -0.625 C14.97225666 -2.70834853 19.35425854 -1.80109444 24 0 C28.50092221 2.15829205 31.1792516 4.96758362 33.375 9.4375 C34.96149199 14.58342914 35.03572816 19.49418187 33.3125 24.5625 C30.26744466 29.08096921 26.59421417 32.69776194 21.375 34.4375 C16.18194954 34.86142249 11.76586297 35.14605283 7.0625 32.75 C6.175625 32.316875 5.28875 31.88375 4.375 31.4375 C2.36574195 32.41876556 0.36742489 33.4224911 -1.625 34.4375 C-6.92138407 35.15001804 -11.22977624 35.12242803 -16.0625 32.75 C-21.41984176 27.91532573 -24.56942886 23.46043126 -25.125 16.1875 C-24.97273483 10.48707253 -22.47273374 6.52214303 -18.625 2.4375 C-12.72404824 -1.99715466 -6.88617015 -2.96817679 0 0 Z " fill="#F9A003" transform="translate(41.625,29.5625)"/>
<path d="M0 0 C1.19503055 0.65307172 2.38539824 1.31514079 3.5625 2 C3.2015625 2.6290625 2.840625 3.258125 2.46875 3.90625 C-0.63422075 9.62950716 -2.38251703 13.48988267 -1.4375 20 C-0.52091324 22.14788141 0.49356923 24.13415802 1.6875 26.140625 C2.5625 28 2.5625 28 2.5625 32 C-2.80438164 34.42625752 -7.62165809 34.6927694 -13.4375 34 C-18.67619834 31.42827536 -21.87460982 27.81320233 -24.6875 22.75 C-26.05004098 17.75401642 -26.48403109 13.40471298 -24.375 8.55859375 C-18.81161865 -0.6179619 -10.20568904 -5.02213169 0 0 Z " fill="#ED0308" transform="translate(42.4375,30)"/>
<path d="M0 0 C0.99 0 1.98 0 3 0 C6.89356396 5.15324642 8.40760839 9.20927582 8.35546875 15.5703125 C7.76329344 19.61792837 5.83985991 23.06414483 3 26 C2.01 26 1.02 26 0 26 C-4.11890702 20.54850541 -5.92318932 15.85103652 -5 9 C-3.80090026 5.83873704 -2.42361204 2.42361204 0 0 Z " fill="#FE5D00" transform="translate(45,33)"/>
</svg>
