<?xml version="1.0" encoding="UTF-8"?>
<svg version="1.1" xmlns="http://www.w3.org/2000/svg" width="92" height="92">
<path d="M0 0 C30.36 0 60.72 0 92 0 C92 30.36 92 60.72 92 92 C61.64 92 31.28 92 0 92 C0 61.64 0 31.28 0 0 Z " fill="#FEFEFE" transform="translate(0,0)"/>
<path d="M0 0 C8.06896552 -0.46551724 8.06896552 -0.46551724 11.375 1.1875 C14.32675585 4.47984306 16.0285446 6.57277021 15.9375 11.125 C15 14 15 14 13.25 15.875 C10.63695229 17.18152386 8.88466476 17.24038873 6 17 C6 18.98 6 20.96 6 23 C4.35 23.33 2.7 23.66 1 24 C1 22.35 1 20.7 1 19 C-0.32 19 -1.64 19 -3 19 C-2.54240047 12.4491015 -1.7899856 6.3246158 0 0 Z " fill="#13398C" transform="translate(5,34)"/>
<path d="M0 0 C0.99 0.66 1.98 1.32 3 2 C2.51578947 7.44736842 2.51578947 7.44736842 0.25 9.875 C-2.36304771 11.18152386 -4.11533524 11.24038873 -7 11 C-7 12.98 -7 14.96 -7 17 C-8.65 17.33 -10.3 17.66 -12 18 C-11.67 14.37 -11.34 10.74 -11 7 C-8.72135417 6.34895833 -6.44270833 5.69791667 -4.1640625 5.046875 C-1.54214546 3.7785108 -1.00617682 2.67576692 0 0 Z " fill="#0F74DF" transform="translate(18,40)"/>
<path d="M0 0 C3.5625 0.1875 3.5625 0.1875 5.5625 2.1875 C5.8125 4.6875 5.8125 4.6875 5.5625 7.1875 C3.5625 9.1875 3.5625 9.1875 0.4375 9.3125 C-0.51125 9.27125 -1.46 9.23 -2.4375 9.1875 C-2.4375 10.8375 -2.4375 12.4875 -2.4375 14.1875 C-3.4275 14.1875 -4.4175 14.1875 -5.4375 14.1875 C-5.29720581 12.0412974 -5.15011836 9.89553782 -5 7.75 C-4.91878906 6.55503906 -4.83757813 5.36007813 -4.75390625 4.12890625 C-4.3023593 -0.068808 -4.320645 0.23567155 0 0 Z " fill="#455CA1" transform="translate(33.4375,38.8125)"/>
<path d="M0 0 C3.375 -0.125 3.375 -0.125 7 0 C9 2 9 2 9.25 4.5 C9 7 9 7 7 9 C4.375 9.625 4.375 9.625 2 10 C1.67 11.32 1.34 12.64 1 14 C0.01 14 -0.98 14 -2 14 C-1.85923685 12.0412957 -1.7122324 10.08303907 -1.5625 8.125 C-1.48128906 7.03445312 -1.40007813 5.94390625 -1.31640625 4.8203125 C-1 2 -1 2 0 0 Z " fill="#0B6EDF" transform="translate(64,39)"/>
<path d="M0 0 C-0.33 2.97 -0.66 5.94 -1 9 C-7.0546875 9.1953125 -7.0546875 9.1953125 -9 9 C-11 7 -11 7 -11.3125 4.5625 C-11 2 -11 2 -10 0.125 C-6.67094132 -1.74759551 -3.68075232 -0.66374222 0 0 Z " fill="#0E70E0" transform="translate(84,44)"/>
<path d="M0 0 C-0.33 2.97 -0.66 5.94 -1 9 C-7.0546875 9.1953125 -7.0546875 9.1953125 -9 9 C-11 7 -11 7 -11.3125 4.5625 C-11 2 -11 2 -10 0.125 C-6.67094132 -1.74759551 -3.68075232 -0.66374222 0 0 Z " fill="#15338A" transform="translate(50,44)"/>
<path d="M0 0 C3 1 3 1 5 3 C5.66 2.01 6.32 1.02 7 0 C7.99 0 8.98 0 10 0 C8.85828608 3.32134957 7.34101632 6.29652203 5.5625 9.3125 C5.15128906 10.00988281 4.74007812 10.70726562 4.31640625 11.42578125 C3.88199219 11.94527344 3.44757812 12.46476562 3 13 C2.01 13 1.02 13 0 13 C0.185625 12.154375 0.37125 11.30875 0.5625 10.4375 C1.03529632 6.7226718 0.66064631 3.67025727 0 0 Z " fill="#132F88" transform="translate(52,43)"/>
<path d="M0 0 C0.75 1.75 0.75 1.75 1 4 C-0.5625 6.25 -0.5625 6.25 -3 8 C-6.25 8.25 -6.25 8.25 -9 8 C-8.67 5.69 -8.34 3.38 -8 1 C-5.36 0.67 -2.72 0.34 0 0 Z " fill="#001C67" transform="translate(17,38)"/>
<path d="M0 0 C0.99 0 1.98 0 3 0 C2.34 4.62 1.68 9.24 1 14 C0.01 14 -0.98 14 -2 14 C-1.85970581 11.8537974 -1.71261836 9.70803782 -1.5625 7.5625 C-1.48128906 6.36753906 -1.40007812 5.17257813 -1.31640625 3.94140625 C-1 1 -1 1 0 0 Z " fill="#1573E0" transform="translate(87,39)"/>
<path d="M0 0 C2.875 -0.1875 2.875 -0.1875 6 0 C6.66 0.99 7.32 1.98 8 3 C6.1875 5 6.1875 5 4 7 C3.01 7 2.02 7 1 7 C0.67 4.69 0.34 2.38 0 0 Z " fill="#5D9DE9" transform="translate(65,39)"/>
<path d="M0 0 C1.66611905 -0.042721 3.33382885 -0.04063832 5 0 C6 1 6 1 6.1875 3.4375 C6 6 6 6 4 8 C0.875 8.125 0.875 8.125 -2 8 C-1 6 -1 6 2 5 C2 4.01 2 3.02 2 2 C1.34 1.34 0.68 0.68 0 0 Z " fill="#052483" transform="translate(33,40)"/>
<path d="M0 0 C2.31 0.33 4.62 0.66 7 1 C6.67 3.97 6.34 6.94 6 10 C4.98329918 7.96659836 3.96801215 5.93202583 3 3.875 C2.02859623 1.83448849 2.02859623 1.83448849 0 0 Z " fill="#042383" transform="translate(43,43)"/>
<path d="M0 0 C-1.875 4.75 -1.875 4.75 -3 7 C-4.32 6.34 -5.64 5.68 -7 5 C-5.24561575 1.4912315 -4.02303809 0 0 0 Z " fill="#284291" transform="translate(62,43)"/>
<path d="M0 0 C1.65 0 3.3 0 5 0 C6.23076923 5.41538462 6.23076923 5.41538462 5.0625 8.375 C4.711875 8.91125 4.36125 9.4475 4 10 C3.15545644 6.62182575 2.89155081 4.32534757 4 1 C2.68 0.67 1.36 0.34 0 0 Z " fill="#BCD2F4" transform="translate(80,43)"/>
<path d="M0 0 C2.31 0.33 4.62 0.66 7 1 C7 2.32 7 3.64 7 5 C6.01 5.33 5.02 5.66 4 6 C3.67 4.68 3.34 3.36 3 2 C2.01 2 1.02 2 0 2 C0 1.34 0 0.68 0 0 Z " fill="#056CDF" transform="translate(77,43)"/>
<path d="M0 0 C1.98 0.495 1.98 0.495 4 1 C3.34 2.32 2.68 3.64 2 5 C1.01 4.67 0.02 4.34 -1 4 C-0.67 2.68 -0.34 1.36 0 0 Z " fill="#EBF1FB" transform="translate(77,46)"/>
<path d="M0 0 C1.98 0.495 1.98 0.495 4 1 C3.34 2.32 2.68 3.64 2 5 C1.01 4.67 0.02 4.34 -1 4 C-0.67 2.68 -0.34 1.36 0 0 Z " fill="#EAEBF2" transform="translate(43,46)"/>
<path d="M0 0 C0.33 0.66 0.66 1.32 1 2 C1.99 2.33 2.98 2.66 4 3 C0.535 4.485 0.535 4.485 -3 6 C-2.42655063 3.13275314 -2.1385485 2.1385485 0 0 Z " fill="#1E76E1" transform="translate(76,43)"/>
</svg>
