<?xml version="1.0" encoding="UTF-8"?>
<svg version="1.1" xmlns="http://www.w3.org/2000/svg" width="92" height="92">
<path d="M0 0 C30.36 0 60.72 0 92 0 C92 30.36 92 60.72 92 92 C61.64 92 31.28 92 0 92 C0 61.64 0 31.28 0 0 Z " fill="#FBFCFD" transform="translate(0,0)"/>
<path d="M0 0 C1.32 0.99 2.64 1.98 4 3 C6.77640131 3.29032484 9.32651188 3.41021825 12.1015625 3.38818359 C12.91502136 3.39344055 13.72848022 3.39869751 14.56658936 3.40411377 C17.25292211 3.41730719 19.93866131 3.40857813 22.625 3.3984375 C24.49300246 3.40045843 26.36100415 3.40337002 28.22900391 3.40713501 C32.1429801 3.41155747 36.05675082 3.40512981 39.97070312 3.39111328 C44.98796951 3.37402145 50.00475445 3.38386305 55.02200317 3.40183067 C58.87902454 3.41267061 62.73593174 3.4092212 66.59295654 3.4014473 C68.44293271 3.39944587 70.29291923 3.40190254 72.1428833 3.40888596 C74.72834738 3.41650389 77.31303152 3.40489172 79.8984375 3.38818359 C80.66323425 3.39425629 81.42803101 3.40032898 82.21600342 3.40658569 C86.90919526 3.35039102 88.0394465 2.97041513 92 0 C92 5.94 92 11.88 92 18 C61.64 18 31.28 18 0 18 C0 12.06 0 6.12 0 0 Z " fill="#FEFEFE" transform="translate(0,74)"/>
<path d="M0 0 C30.36 0 60.72 0 92 0 C92 5.61 92 11.22 92 17 C90.68 16.34 89.36 15.68 88 15 C85.26525712 14.80430287 82.63280337 14.71648433 79.8984375 14.7253418 C78.67824921 14.7176754 78.67824921 14.7176754 77.43341064 14.70985413 C74.74719873 14.69596527 72.06124353 14.69691414 69.375 14.69921875 C67.50699773 14.69533186 65.63899634 14.6909972 63.77099609 14.68623352 C59.8570672 14.67877315 55.94322851 14.67906158 52.02929688 14.68432617 C47.01205366 14.69012516 41.99517907 14.67317858 36.97799683 14.6499815 C33.12099039 14.63525638 29.26407302 14.63437071 25.40704346 14.63749123 C23.55706043 14.63697755 21.70707248 14.63173114 19.8571167 14.62167931 C17.27168738 14.60935377 14.68698011 14.61608263 12.1015625 14.62768555 C11.33676575 14.62004181 10.57196899 14.61239807 9.78399658 14.60452271 C5.08710107 14.65115423 3.96428484 15.02678637 0 18 C0 12.06 0 6.12 0 0 Z " fill="#FEFEFE" transform="translate(0,0)"/>
<path d="M0 0 C0.81345886 -0.00540298 1.62691772 -0.01080597 2.46502686 -0.01637268 C5.15153487 -0.02887086 7.83697348 -0.01236218 10.5234375 0.00561523 C12.39143937 0.00546027 14.25944157 0.00397174 16.12744141 0.00120544 C20.04148581 -0.00017904 23.955164 0.01238766 27.86914062 0.03515625 C32.88642848 0.06354102 37.90310779 0.06080421 42.92044067 0.04806614 C46.77747801 0.04111141 50.63437467 0.04889588 54.49139404 0.06132317 C56.34136414 0.06583967 58.19134933 0.06617273 60.0413208 0.06225777 C62.62682047 0.05934757 65.21148132 0.07584297 67.796875 0.09765625 C68.94407013 0.09090378 68.94407013 0.09090378 70.11444092 0.08401489 C73.12731956 0.12625291 75.60540699 0.38184114 78.40478516 1.52696228 C79.8984375 3.50170898 79.8984375 3.50170898 79.8984375 11.50170898 C49.5384375 11.50170898 19.1784375 11.50170898 -12.1015625 11.50170898 C-12.1015625 4.50170898 -12.1015625 4.50170898 -10.60791016 2.0955658 C-7.13061583 -0.11574325 -3.99195072 -0.05046315 0 0 Z " fill="#0D9CC0" transform="translate(12.1015625,13.498291015625)"/>
<path d="M0 0 C30.36 0 60.72 0 92 0 C92 7 92 7 90.50634766 9.40515137 C87.03076124 11.61674968 83.88993661 11.55983623 79.8984375 11.51757812 C78.67824921 11.52809204 78.67824921 11.52809204 77.43341064 11.53881836 C74.74692558 11.55641059 72.0614956 11.54477163 69.375 11.53125 C67.50699664 11.53394457 65.63899465 11.5378267 63.77099609 11.54284668 C59.85696045 11.54874338 55.94329005 11.54017328 52.02929688 11.52148438 C47.01190111 11.49869468 41.99536119 11.51181685 36.97799683 11.53577423 C33.12094676 11.55022759 29.26409963 11.54562835 25.40704346 11.53526306 C23.55706684 11.53259449 21.70707181 11.5358701 19.8571167 11.54518127 C17.27143543 11.55533937 14.68714049 11.5398571 12.1015625 11.51757812 C11.33676575 11.52567505 10.57196899 11.53377197 9.78399658 11.54211426 C6.46173091 11.48907469 4.32028803 11.20380689 1.49365234 9.40515137 C0 7 0 7 0 0 Z " fill="#F7A01D" transform="translate(0,67)"/>
<path d="M0 0 C30.36 0 60.72 0 92 0 C92 0.33 92 0.66 92 1 C62.96 1 33.92 1 4 1 C4 14.2 4 27.4 4 41 C33.04 41 62.08 41 92 41 C92 41.33 92 41.66 92 42 C61.64 42 31.28 42 0 42 C0 28.14 0 14.28 0 0 Z " fill="#DEDFDA" transform="translate(0,25)"/>
<path d="M0 0 C3.625 -0.1875 3.625 -0.1875 7 0 C7.8368335 3.62420124 8.66887234 7.24948637 9.5 10.875 C9.73847656 11.90753906 9.97695312 12.94007812 10.22265625 14.00390625 C10.44824219 14.99003906 10.67382812 15.97617187 10.90625 16.9921875 C11.11572266 17.90339355 11.32519531 18.81459961 11.54101562 19.75341797 C12 22 12 22 12 24 C10.02 24 8.04 24 6 24 C6 22.68 6 21.36 6 20 C3.03 20 0.06 20 -3 20 C-3.33 21.32 -3.66 22.64 -4 24 C-6.31 24 -8.62 24 -11 24 C-9.54661687 20.56038614 -8.08644731 17.12369437 -6.625 13.6875 C-6.2125 12.71103516 -5.8 11.73457031 -5.375 10.72851562 C-4.77558594 9.32182617 -4.77558594 9.32182617 -4.1640625 7.88671875 C-3.79748535 7.02264404 -3.4309082 6.15856934 -3.05322266 5.26831055 C-2 3 -2 3 0 0 Z " fill="#119DC0" transform="translate(72,34)"/>
<path d="M0 0 C0.66 0.33 1.32 0.66 2 1 C2 2.32 2 3.64 2 5 C-0.97 5 -3.94 5 -7 5 C-5.6636586 9.00902419 -3.50572968 9.80891895 0 12 C1 13 1 13 1.3125 16.375 C1 20 1 20 -0.8125 21.875 C-4.2014161 23.61787114 -6.86546057 24.13724606 -10.625 24.125 C-11.81996094 24.12886719 -11.81996094 24.12886719 -13.0390625 24.1328125 C-15 24 -15 24 -16 23 C-16 21.35 -16 19.7 -16 18 C-12.7 18 -9.4 18 -6 18 C-7.3363414 13.99097581 -9.49427032 13.19108105 -13 11 C-14 10 -14 10 -14.4375 7.75 C-13.90148431 4.38075853 -12.54855505 2.98390252 -9.859375 0.94140625 C-6.50302465 -0.75792239 -3.70106694 -0.37010669 0 0 Z " fill="#0D9BBF" transform="translate(60,34)"/>
<path d="M0 0 C1.98 0 3.96 0 6 0 C-0.3 20.3 -0.3 20.3 -4 24 C-6.31 24 -8.62 24 -11 24 C-12.65 17.73 -14.3 11.46 -16 5 C-12.25607694 6.87196153 -11.39954587 7.40068119 -9.25 10.625 C-8.82203125 11.25664063 -8.3940625 11.88828125 -7.953125 12.5390625 C-7.48132813 13.26222656 -7.48132813 13.26222656 -7 14 C-6.74605469 13.49210937 -6.49210937 12.98421875 -6.23046875 12.4609375 C-4.15364583 8.30729167 -2.07682292 4.15364583 0 0 Z " fill="#119DC0" transform="translate(28,34)"/>
<path d="M0 0 C1.98 0 3.96 0 6 0 C5.688288 2.52093298 5.37565098 5.0417457 5.0625 7.5625 C4.93198242 8.61920898 4.93198242 8.61920898 4.79882812 9.69726562 C4.53734503 11.79881498 4.26955213 13.89947172 4 16 C3.83371094 17.30839844 3.66742188 18.61679687 3.49609375 19.96484375 C3 23 3 23 2 24 C0.00041636 24.04080783 -2.00045254 24.04254356 -4 24 C-3.52662668 20.37421866 -3.04532209 16.74953422 -2.5625 13.125 C-2.42779297 12.09246094 -2.29308594 11.05992188 -2.15429688 9.99609375 C-2.02216797 9.00996094 -1.89003906 8.02382813 -1.75390625 7.0078125 C-1.63345947 6.09660645 -1.5130127 5.18540039 -1.38891602 4.24658203 C-1 2 -1 2 0 0 Z " fill="#149DC0" transform="translate(37,34)"/>
<path d="M0 0 C3.63 0 7.26 0 11 0 C13 4 13 4 12.625 6.25 C12.41875 6.8275 12.2125 7.405 12 8 C8 5.33333333 4 2.66666667 0 0 Z " fill="#F7A01E" transform="translate(6,34)"/>
<path d="M0 0 C1.32 0 2.64 0 4 0 C4.22786458 2.01822917 4.45572917 4.03645833 4.68359375 6.0546875 C4.91292961 8.07404316 4.91292961 8.07404316 6 10 C3.5625 9.625 3.5625 9.625 1 9 C-0.4783226 6.04335481 -0.06032783 3.25770263 0 0 Z " fill="#D78C18" transform="translate(0,67)"/>
<path d="M0 0 C1.32 0.33 2.64 0.66 4 1 C3.67 1.33 3.34 1.66 3 2 C2.76924918 3.34747084 2.58846937 4.70377565 2.4375 6.0625 C2.293125 7.361875 2.14875 8.66125 2 10 C0.68 10 -0.64 10 -2 10 C-2.25 3.375 -2.25 3.375 0 0 Z " fill="#0B87A7" transform="translate(2,15)"/>
<path d="M0 0 C2.29013653 3.4352048 2.17842973 4.985331 2 9 C0.35 9 -1.3 9 -3 9 C-2.01 6.03 -1.02 3.06 0 0 Z " fill="#D7EAF1" transform="translate(74,41)"/>
</svg>
